#!OML:ASF F:\VICON\USERDATA\INSTALL\rory3\rory3.ASF
:FULLY-SPECIFIED
:DEGREES
54
root 0.9010853149311405 17.773376651434706 34.22638597030144 -3.7458094725540647 -1.9606025069084871 -5.917376197032423
lfemur -7.727098392350386 0.8539156006531208 -10.93670540312117
ltibia 54.49876936294383
lfoot -7.3713257742801375 1.265497768650898
ltoes -14.179547615218967
rfemur -11.01657163488614 3.5001304943493783 30.795729441938356
rtibia 30.0960555403569
rfoot -9.468193508445832 -9.5109041207777
rtoes 0.8862793152384818
lowerback 11.118544870465607 -0.14503296829343845 2.926720386864453
upperback -0.03209330515727736 0.5218728534006647 2.7256075758175218
thorax -6.324534135203662 0.21811448943406958 1.5311067730346961
lowerneck -17.116585395022735 -3.230170527206953 -1.3907454799996377
upperneck 21.745609893205337 -4.2727341558887195 0.6843286570414695
head 9.760292317819479 -2.063721167663172 -0.05935620641556441
lclavicle -2.5113860782464907e-15 -2.739767431447467e-15
lhumerus -34.35671526259946 5.215796814564445 82.97896481676189
lradius 22.65372813916544
lwrist 11.194360719186317
lhand -29.82815381213639 18.344884819845667
lfingers nan
lthumb -3.1739163189665947 47.98314176856212
rclavicle -2.4932882352245704e-15 -2.729258039297666e-15
rhumerus -29.89247957617061 -22.695078081045594 -73.94482482186436
rradius 29.183858468869506
rwrist 3.840041114484668
rhand -17.717395976651403 21.738182265484937
rfingers nan
rthumb 8.435643776009812 -8.001663213965896
55
root 0.9253835961043583 17.785692864617918 34.827501886781526 -3.5953031488530893 -1.5006560876306752 -6.2388735559286355
lfemur -11.284325164110587 0.8965082778079245 -10.922598046978262
ltibia 56.06705128929132
lfoot -8.194035214778593 1.1021693449202332
ltoes -14.301873598488527
rfemur -9.249505547758883 3.2376939397823303 31.192876180199622
rtibia 29.99312574552763
rfoot -8.494457660589122 -9.557468310216771
rtoes 0.4487530346729254
lowerback 10.959613232712638 0.02349822509893132 3.5668360526403635
upperback -0.050937267560953126 0.905987326600395 2.688143546313734
thorax -6.268450841347063 0.37727593763195366 0.9074391976272742
lowerneck -17.067836532330535 -3.326932104685215 -1.3161493050767605
upperneck 21.695218402307344 -4.46640663044382 0.7481632290778798
head 9.752929049031456 -2.131345448917501 -0.0804796893514498
lclavicle -2.5114128355722864e-15 -2.7410188943542873e-15
lhumerus -35.11061404550983 6.084984206420813 82.85633958325897
lradius 23.52017682832962
lwrist 11.412507247179322
lhand -29.953712969848297 18.28283186219393
lfingers nan
lthumb -3.3509567798909026 47.82681092349859
rclavicle -2.496529380678854e-15 -2.732155570248834e-15
rhumerus -28.825361745776277 -21.60204389549553 -73.91521015093079
rradius 29.52512593158365
rwrist 3.378350834937164
rhand -17.7118068218799 21.831033211868434
rfingers nan
rthumb 8.442014781994748 -7.729726327912746
56
root 0.9507495601465551 17.798678363093444 35.33531121249264 -3.7401793730615474 -1.3229274033606633 -6.328462990530664
lfemur -14.499152931999927 0.5935114998050373 -11.567311030154725
ltibia 56.259063327785725
lfoot -7.911177574336675 1.7927648717098577
ltoes -16.21033943939272
rfemur -7.536758444980219 3.1780041468858586 31.479778344622595
rtibia 30.447800180732116
rfoot -7.352117184811215 -9.647426977298538
rtoes 0.4970232768641989
lowerback 10.917971209985508 0.2706129487764231 3.976463048971091
upperback -0.11202327040253093 1.3786844151614508 2.5690067265934906
thorax -6.22725744877097 0.6255620744049062 0.3041258402266871
lowerneck -16.938723147991958 -3.4353353017907287 -1.2875982204379803
upperneck 21.670220356137627 -4.690528925824808 0.8082730084639619
head 9.742678401214388 -2.2109522651633635 -0.1037971228856305
lclavicle -2.510896793519162e-15 -2.7431055546025716e-15
lhumerus -35.43122843379454 6.683842064079181 82.72130306004415
lradius 24.328263944641233
lwrist 11.50522939412205
lhand -30.000698564336805 18.177136393878804
lfingers nan
lthumb -3.4438288937305437 47.654490540093775
rclavicle -2.5000021253364417e-15 -2.735982230671217e-15
rhumerus -28.041530217510083 -20.63347864823244 -73.76420007439528
rradius 30.050091657416083
rwrist 2.9156769795865385
rhand -17.669549787398214 22.064480429836458
rfingers nan
rthumb 8.449797193579823 -7.415791769121807
57
root 0.9807360619433299 17.80916042551214 36.63367301665545 -3.792532386174633 -1.2212799868865574 -6.432484346935933
lfemur -16.419521265148735 0.23183591881427823 -12.037842165893661
ltibia 54.74335208878935
lfoot -8.073277490447827 1.2659338600222534
ltoes -16.776724356663788
rfemur -6.270040332009196 3.4207446993106805 31.82749817719332
rtibia 31.452393399916822
rfoot -6.161663485233901 -9.83228612441318
rtoes 0.9145736725845104
lowerback 10.911478205741998 0.5073769798866525 4.422069269161227
upperback -0.1549119519291569 1.7316506980188529 2.4252915086069247
thorax -6.185219515293718 0.8091457989389931 -0.20181328077910798
lowerneck -16.76914960090313 -3.535482755254115 -1.287562195180893
upperneck 21.72683238195253 -4.88980189202744 0.8668753081022509
head 9.752955375810801 -2.282254523591019 -0.11688159072026003
lclavicle -2.510382477355824e-15 -2.745082244518386e-15
lhumerus -35.40108529415068 6.855082486973679 82.61068127105638
lradius 25.04919726379567
lwrist 11.491778455953755
lhand -29.88923963030801 18.293861214031036
lfingers nan
lthumb -3.3937212995570647 47.692744634271
rclavicle -2.5024601913119885e-15 -2.739095184298484e-15
rhumerus -27.580584854000065 -19.798502513126664 -73.64202442839374
rradius 30.668366091295923
rwrist 2.6465707819530557
rhand -17.69933898741034 22.144605986448386
rfingers nan
rthumb 8.402387913670468 -7.289504294626694
58
root 1.0044084655012282 17.82581822328421 36.863930618658685 -3.788968997163966 -1.2435733593830305 -6.694560641696562
lfemur -16.927782522891476 0.012707547597406776 -12.13744409792045
ltibia 51.453561411061216
lfoot -7.87207912346221 1.4673362769376364
ltoes -17.36154920128677
rfemur -5.533824859501589 3.8626504291259636 32.335569069723206
rtibia 33.3350102388365
rfoot -5.212524028791394 -10.145533341065534
rtoes 1.6896464559662228
lowerback 10.841067305849535 0.7150527297996989 4.796209560475059
upperback -0.17908846665452927 1.9720841741265331 2.223553125102587
thorax -6.094535506308757 0.9307603744173821 -0.5278740674583027
lowerneck -16.574190390734262 -3.639798080038096 -1.334173806925449
upperneck 21.785743129269065 -5.08244640887858 0.9827693171355558
head 9.765454633488092 -2.3481941258811125 -0.10151788208954463
lclavicle -2.5111046326709084e-15 -2.7473259781765314e-15
lhumerus -35.03392671098398 6.691272259432674 82.5460388726498
lradius 25.655912216893988
lwrist 11.423204556421187
lhand -29.87672918967063 18.14428833639202
lfingers nan
lthumb -3.3765932273002885 47.65429255142543
rclavicle -2.503274006244722e-15 -2.740866644227166e-15
rhumerus -27.40467949516397 -19.10785561938578 -73.71522040568492
rradius 31.25436198077417
rwrist 2.571772228245996
rhand -17.675282173941913 22.271066307307365
rfingers nan
rthumb 8.383468367195107 -7.250186371878515
59
root 1.0176255525993638 17.82899126926409 36.93869117097855 -4.054694799119838 -1.3624242067166514 -6.722239187158155
lfemur -16.799219561256795 -0.1637032936953733 -12.351373739387233
ltibia 46.932408460747126
lfoot -8.67734415331778 0.394251029382537
ltoes -17.477565744230148
rfemur -5.174810763391999 4.288270877918517 32.61393840540658
rtibia 36.0351688801402
rfoot -4.683568556523564 -10.620739627117102
rtoes 2.716386062962293
lowerback 10.825996206946611 0.976242818716321 4.923696377694808
upperback -0.1617447466186143 2.3197610480835547 2.1134683436534543
thorax -5.9831740029150176 1.095782752824552 -0.8346591783201982
lowerneck -16.373496667526197 -3.732777143840784 -1.425307971324202
upperneck 21.836134802838924 -5.2568173515050525 1.1320060169479458
head 9.78622428837209 -2.4026780068271125 -0.06925720971003715
lclavicle -2.5119846646695728e-15 -2.748939695958337e-15
lhumerus -34.44518746496443 6.135853371675838 82.49382592701704
lradius 26.203151887328627
lwrist 11.263073672568023
lhand -29.80294519830323 18.25658474330556
lfingers nan
lthumb -3.3003631046170065 47.80697186659299
rclavicle -2.5030000955334252e-15 -2.7415140396597717e-15
rhumerus -27.33299725666315 -18.476033834100086 -73.95244934898328
rradius 31.705609511309017
rwrist 2.5912883671476683
rhand -17.697536902077715 22.250654395042346
rfingers nan
rthumb 8.411620662393394 -7.254589103379182
60
root 1.0292850979764738 17.829331342015685 37.184649610978205 -4.129121054194796 -1.2000963690179232 -7.099688891215255
lfemur -16.52642658792038 -0.3803591621503981 -12.297327446777356
ltibia 41.85702864332248
lfoot -7.99091095926606 0.6704069843870895
ltoes -17.917813260478546
rfemur -5.636234390920924 4.536704994774181 32.939522794261904
rtibia 39.40307931413315
rfoot -4.526734542208251 -11.120180908942862
rtoes 3.7554299833740723
lowerback 10.820706787719002 1.1294688682524308 5.217401660881211
upperback -0.17060011729966396 2.5814362047214043 2.125397886119206
thorax -5.938469243696435 1.1852888883186905 -1.2138890886283262
lowerneck -16.209366190183037 -3.808133998182854 -1.5305324870508283
upperneck 21.845796699433922 -5.392394841218318 1.3205105839811901
head 9.793778980517136 -2.4409943349123058 -0.013327764224222854
lclavicle -2.5123887879519854e-15 -2.7501462362446843e-15
lhumerus -33.61450060219941 5.391028647683513 82.44163344907184
lradius 26.683061856221855
lwrist 11.03107438483513
lhand -29.777750862023833 18.204997898581745
lfingers nan
lthumb -3.2356513868028456 47.914545089710224
rclavicle -2.503211162798713e-15 -2.7423596854012895e-15
rhumerus -27.317189541304334 -17.869789500363986 -74.3245625016243
rradius 31.973353256085307
rwrist 2.6622747166314227
rhand -17.663827836824705 22.30793692095584
rfingers nan
rthumb 8.436209214181796 -7.305767329431846
